<svg aria-hidden="true" style="position: absolute; width: 0; height: 0; overflow: hidden;" version="1.1" xmlns="http://www.w3.org/2000/svg" xmlns:xlink="http://www.w3.org/1999/xlink">
<defs>
<symbol id="burger" viewBox="0 0 32 32">
<path fill="none" stroke="#d41443" style="stroke: var(--color1, #d41443)" stroke-linejoin="miter" stroke-linecap="butt" stroke-miterlimit="4" stroke-width="1.6" d="M0 6.4h32M0 16h32M0 25.6h32"></path>
</symbol>
<symbol id="cross" viewBox="0 0 32 32">
<path fill="none" stroke="#fff" style="stroke: var(--color2, #fff)" stroke-linejoin="miter" stroke-linecap="butt" stroke-miterlimit="4" stroke-width="2" d="M2.52 2l26.96 28M2 29.48l28-26.96"></path>
</symbol>
<symbol id="ellipse" viewBox="0 0 32 32">
<path fill="#ffa5ba" style="fill: var(--color3, #ffa5ba)" d="M32 16c0 8.837-7.163 16-16 16s-16-7.163-16-16c0-8.837 7.163-16 16-16s16 7.163 16 16z"></path>
</symbol>
<symbol id="next" viewBox="0 0 32 32">
<path fill="none" stroke="#d41443" style="stroke: var(--color1, #d41443)" stroke-linejoin="round" stroke-linecap="round" stroke-miterlimit="4" stroke-width="6.4" d="M8.371 3.2l14.17 12.8-14.17 12.8"></path>
</symbol>

<symbol id="quotes" viewBox="0 0 32 32">
<path fill="#e1e1e1" style="fill: var(--color4, #e1e1e1)" d="M23.463 5.508c1.413 0 2.748 0.341 4.005 1.023s2.277 1.663 3.062 2.943c0.754 1.279 1.131 2.787 1.131 4.521s-0.471 3.426-1.413 5.075c-0.315 0.597-0.88 1.364-1.697 2.303-0.848 0.938-1.633 1.748-2.355 2.431l-2.968 2.687-2.12-3.156c1.506-0.846 2.795-1.868 3.902-3.061l0.009-0.010c1.131-1.194 1.696-2.289 1.696-3.284 0-0.512-0.126-0.924-0.377-1.237-1.099 0.711-2.324 1.067-3.675 1.067-0.974 0-1.9-0.27-2.78-0.81-0.911-0.512-1.633-1.194-2.167-2.047-0.566-0.825-0.848-1.678-0.848-2.559 0-0.996 0.33-1.948 0.989-2.858 0.628-0.91 1.461-1.649 2.497-2.217 1.005-0.54 2.042-0.811 3.11-0.811zM6.549 5.508c1.413 0 2.748 0.341 4.005 1.023s2.277 1.663 3.062 2.943c0.754 1.279 1.131 2.787 1.131 4.521 0 1.222-0.173 2.317-0.518 3.284-0.346 0.995-0.942 2.033-1.79 3.113-0.817 1.023-1.586 1.876-2.308 2.559-0.723 0.711-1.979 1.891-3.769 3.54l-2.12-3.156c1.506-0.846 2.795-1.868 3.901-3.061l0.009-0.010c1.131-1.194 1.696-2.289 1.696-3.284 0-0.512-0.125-0.924-0.377-1.237-1.1 0.711-2.324 1.067-3.675 1.067-0.974 0-1.901-0.27-2.78-0.81-0.91-0.512-1.633-1.194-2.167-2.047-0.566-0.825-0.848-1.678-0.848-2.559 0-0.996 0.314-1.948 0.942-2.858s1.46-1.648 2.497-2.217c1.005-0.54 2.042-0.811 3.11-0.811z"></path>
</symbol>
<symbol id="red-dots" viewBox="0 0 32 32">
<path fill="#c7133e" style="fill: var(--color5, #c7133e)" d="M18 16c0 1.105-0.895 2-2 2s-2-0.895-2-2c0-1.105 0.895-2 2-2s2 0.895 2 2z"></path>
<path fill="#c7133e" style="fill: var(--color5, #c7133e)" d="M4 16c0 1.105-0.895 2-2 2s-2-0.895-2-2c0-1.105 0.895-2 2-2s2 0.895 2 2z"></path>
<path fill="#c7133e" style="fill: var(--color5, #c7133e)" d="M32 16c0 1.105-0.895 2-2 2s-2-0.895-2-2c0-1.105 0.895-2 2-2s2 0.895 2 2z"></path>
</symbol>
<symbol id="slider-dot" viewBox="0 0 32 32">
<path fill="#d9d9d9" style="fill: var(--color6, #d9d9d9)" d="M32 16c0 8.837-7.163 16-16 16s-16-7.163-16-16c0-8.837 7.163-16 16-16s16 7.163 16 16z"></path>
</symbol>
<symbol id="slider-home" viewBox="0 0 32 32">
<path fill="#d31342" style="fill: var(--color7, #d31342)" d="M31.6 16.765c0.246-0.246 0.399-0.586 0.399-0.962 0-0.435-0.204-0.822-0.521-1.070l-0.003-0.002-14.301-11.675c-0.314-0.243-0.713-0.389-1.146-0.389-0.448 0-0.86 0.157-1.183 0.419l0.004-0.003-14.349 12.267c-0.306 0.249-0.5 0.626-0.5 1.049 0 0.39 0.166 0.741 0.43 0.988l0.001 0.001 0.36 0.347c0.595 0.581 1.56 0.651 2.152 0.155l1.072-0.896v13.117c0 0.803 0.701 1.456 1.563 1.456h5.592c0.864 0 1.563-0.653 1.563-1.456v-9.176h7.133v9.173c-0 0.011-0 0.023-0 0.035 0 0.785 0.636 1.421 1.421 1.421 0.016 0 0.032-0 0.048-0.001l-0.002 0h5.928c0.861 0 1.56-0.651 1.56-1.456v-12.928s0.299 0.24 0.664 0.541c0.363 0.299 1.131 0.059 1.709-0.536l0.408-0.419z"></path>
</symbol>
<symbol id="white-dots" viewBox="0 0 32 32">
<path fill="#fff" style="fill: var(--color2, #fff)" d="M19.692 16c0 2.039-1.653 3.692-3.692 3.692s-3.692-1.653-3.692-3.692c0-2.039 1.653-3.692 3.692-3.692s3.692 1.653 3.692 3.692z"></path>
<path fill="#fff" style="fill: var(--color2, #fff)" d="M7.385 16c0 2.039-1.653 3.692-3.692 3.692s-3.692-1.653-3.692-3.692c0-2.039 1.653-3.692 3.692-3.692s3.692 1.653 3.692 3.692z"></path>
<path fill="#fff" style="fill: var(--color2, #fff)" d="M32 16c0 2.039-1.653 3.692-3.692 3.692s-3.692-1.653-3.692-3.692c0-2.039 1.653-3.692 3.692-3.692s3.692 1.653 3.692 3.692z"></path>
</symbol>
<symbol id="next-white" viewBox="0 0 26 32">
<path fill="none" stroke="#fff" style="stroke: var(--color1, #fff)" stroke-linejoin="round" stroke-linecap="round" stroke-miterlimit="4" stroke-width="6.4" d="M5.172 3.2l14.169 12.8-14.169 12.8"></path>
</symbol>
</defs>
</svg>
